<svg width="180" height="208" viewBox="0 0 180 208" fill="none" xmlns="http://www.w3.org/2000/svg">
  <path d="M179.866 117.888C179.866 131.244 176.949 143.932 171.711 155.332C157.517 186.31 126.234 207.821 89.9331 207.821C53.6317 207.821 22.3496 186.31 8.15474 155.332C2.91675 143.932 0 131.244 0 117.888C0 68.218 40.2633 27.9547 89.9331 27.9547C139.603 27.9547 179.866 68.218 179.866 117.888Z" fill="#F0F1F2"/>
  <mask id="mask0_2034_21661" style="mask-type:luminance" maskUnits="userSpaceOnUse" x="0" y="0" width="180" height="208">
    <path d="M180 49.2203C180 62.5766 177.083 143.93 171.845 155.329C157.65 186.307 126.368 207.819 90.0669 207.819C53.7655 207.819 22.4834 186.307 8.28853 155.329C3.05054 143.93 0.133789 62.5766 0.133789 49.2203C0.133789 -0.44952 40.3971 0.000142218 90.0669 0.000142218C139.737 0.000142218 180 -0.44952 180 49.2203Z" fill="white"/>
  </mask>
  <g mask="url(#mask0_2034_21661)">
    <g filter="url(#filter0_d_2034_21661)">
      <path d="M21.8792 23.8482C21.8792 22.7581 22.7615 21.8757 23.8516 21.8757H156.022C157.112 21.8757 157.994 22.7581 157.994 23.8482V206.392C157.994 207.482 157.112 208.364 156.022 208.364H23.8516C23.5925 208.364 23.336 208.313 23.0966 208.214C22.8572 208.115 22.6397 207.97 22.4565 207.787C22.2733 207.604 22.128 207.386 22.029 207.147C21.9299 206.907 21.879 206.651 21.8792 206.392V23.8482Z" fill="#F0F1F2"/>
    </g>
    <path d="M21.8755 128.823H157.99V205.868C157.99 206.946 157.108 207.818 156.018 207.818H23.8479C23.5903 207.82 23.3349 207.771 23.0963 207.674C22.8577 207.576 22.6406 207.433 22.4574 207.252C22.2742 207.071 22.1285 206.855 22.0287 206.618C21.9288 206.38 21.8768 206.126 21.8755 205.868V128.823Z" fill="white"/>
    <path d="M93.5825 142.192H37.6782C37.0335 142.192 36.4153 142.448 35.9595 142.904C35.5036 143.359 35.2476 143.978 35.2476 144.622C35.2476 145.267 35.5036 145.885 35.9595 146.341C36.4153 146.797 37.0335 147.053 37.6782 147.053H93.5825C94.2272 147.053 94.8454 146.797 95.3012 146.341C95.7571 145.885 96.0132 145.267 96.0132 144.622C96.0132 143.978 95.7571 143.359 95.3012 142.904C94.8454 142.448 94.2272 142.192 93.5825 142.192Z" fill="#D2D5D9"/>
    <path d="M77.7835 160.421H41.3241C39.7125 160.421 38.1669 161.062 37.0273 162.201C35.8878 163.341 35.2476 164.886 35.2476 166.498C35.2476 168.109 35.8878 169.655 37.0273 170.795C38.1669 171.934 39.7125 172.574 41.3241 172.574H77.7835C79.3951 172.574 80.9407 171.934 82.0803 170.795C83.2198 169.655 83.86 168.109 83.86 166.498C83.86 164.886 83.2198 163.341 82.0803 162.201C80.9407 161.062 79.3951 160.421 77.7835 160.421Z" fill="#108060"/>
  </g>
  <path d="M102.086 21.8757H155.56C156.205 21.8757 156.823 22.1318 157.279 22.5876C157.734 23.0435 157.991 23.6617 157.991 24.3064V128.823H102.086V21.8757Z" fill="#E8E9EB"/>
  <path d="M102.086 128.823H76.9292C58.821 116.062 58.6995 106.097 63.1962 92.85V92.7284C67.8143 79.2385 76.9292 62.5887 76.9292 36.4595H102.086C102.086 38.7686 102.208 40.9561 102.329 43.0222C105.124 90.0547 136.966 104.395 102.086 128.823Z" fill="#E9AF58"/>
  <path d="M102.086 128.823H76.9292C58.821 116.062 58.6995 106.097 63.1962 92.85V92.7284C69.2727 76.3217 84.5856 56.9982 102.086 36.4595C102.086 38.7686 102.208 40.9561 102.329 43.0222C105.124 90.0547 136.966 104.395 102.086 128.823Z" fill="#E0A143"/>
  <path d="M102.086 128.823H76.9292C104.638 115.698 103.545 82.6414 102.329 43.0222C105.124 90.0548 136.966 104.395 102.086 128.823Z" fill="#D9942D"/>
  <path fill-rule="evenodd" clip-rule="evenodd" d="M110.304 53.8203C110.026 53.5427 109.806 53.2131 109.655 52.8502C109.505 52.4874 109.428 52.0984 109.428 51.7056V39.5002C109.428 38.7073 109.743 37.9469 110.303 37.3862C110.864 36.8255 111.625 36.5106 112.417 36.5106H124.625C125.418 36.5106 126.178 36.8265 126.739 37.3856L141.828 52.4761C142.995 53.6428 142.995 55.5351 141.828 56.703L129.62 68.9083C129.06 69.4687 128.299 69.7834 127.507 69.7834C126.714 69.7834 125.954 69.4687 125.393 68.9083L110.304 53.819V53.8203ZM118.778 45.86C118.983 45.6553 119.146 45.4122 119.257 45.1448C119.368 44.8773 119.425 44.5905 119.425 44.301C119.425 44.0114 119.368 43.7246 119.257 43.457C119.147 43.1895 118.984 42.9463 118.78 42.7415C118.575 42.5366 118.332 42.3741 118.064 42.2632C117.797 42.1523 117.51 42.0951 117.221 42.095C116.931 42.0949 116.644 42.1518 116.377 42.2625C116.109 42.3732 115.866 42.5356 115.661 42.7402C115.247 43.1536 115.015 43.7144 115.015 44.2992C115.014 44.8841 115.246 45.445 115.66 45.8587C116.073 46.2724 116.634 46.505 117.219 46.5052C117.804 46.5054 118.365 46.2733 118.778 45.86Z" fill="#108060"/>
  <defs>
    <filter id="filter0_d_2034_21661" x="9.72603" y="12.1532" width="160.421" height="210.795" filterUnits="userSpaceOnUse" color-interpolation-filters="sRGB">
      <feFlood flood-opacity="0" result="BackgroundImageFix"/>
      <feColorMatrix in="SourceAlpha" type="matrix" values="0 0 0 0 0 0 0 0 0 0 0 0 0 0 0 0 0 0 127 0" result="hardAlpha"/>
      <feOffset dy="2.43062"/>
      <feGaussianBlur stdDeviation="6.07656"/>
      <feColorMatrix type="matrix" values="0 0 0 0 0 0 0 0 0 0 0 0 0 0 0 0 0 0 0.3 0"/>
      <feBlend mode="normal" in2="BackgroundImageFix" result="effect1_dropShadow_2034_21661"/>
      <feBlend mode="normal" in="SourceGraphic" in2="effect1_dropShadow_2034_21661" result="shape"/>
    </filter>
  </defs>
</svg>