<svg width="226" height="226" viewBox="0 0 226 226" fill="none" xmlns="http://www.w3.org/2000/svg">
<g id="Frame 1618874153">
<g id="package banner 1" clip-path="url(#clip0_992_34289)">
<g id="Group">
<g id="Layer 1">
<path id="Vector" d="M214.299 131.8C214.345 155.65 205.949 178.747 190.599 197H34.1991C23.7578 184.433 16.4947 169.538 13.0234 153.572C9.55208 137.607 9.97456 121.04 14.2552 105.273C18.5357 89.5048 26.5487 74.999 37.6169 62.9807C48.6852 50.9624 62.4836 41.7847 77.8464 36.223C93.2091 30.6614 109.685 28.8792 125.882 31.027C142.078 33.1748 157.52 39.1895 170.902 48.563C184.285 57.9364 195.214 70.3932 202.767 84.8809C210.321 99.3686 214.276 115.462 214.299 131.8Z" fill="#D0E9EB"/>
<path id="Vector_2" d="M63.7996 105.4H30.8996C28.5248 105.4 26.5996 107.326 26.5996 109.7V111.48C26.5996 113.855 28.5248 115.78 30.8996 115.78H63.7996C66.1744 115.78 68.0996 113.855 68.0996 111.48V109.7C68.0996 107.326 66.1744 105.4 63.7996 105.4Z" fill="#D4EBE7"/>
<path id="Vector_3" d="M53.6992 98.0996H46.4992C44.1244 98.0996 42.1992 100.025 42.1992 102.4V104.18C42.1992 106.554 44.1244 108.48 46.4992 108.48H53.6992C56.074 108.48 57.9992 106.554 57.9992 104.18V102.4C57.9992 100.025 56.074 98.0996 53.6992 98.0996Z" fill="#D4EBE7"/>
<path id="Vector_4" d="M163.4 142.9H196.3C198.674 142.9 200.6 140.975 200.6 138.6V136.82C200.6 134.446 198.674 132.52 196.3 132.52H163.4C161.025 132.52 159.1 134.446 159.1 136.82V138.6C159.1 140.975 161.025 142.9 163.4 142.9Z" fill="#D4EBE7"/>
<path id="Vector_5" d="M173.5 135.6H180.7C183.075 135.6 185 133.674 185 131.3V129.52C185 127.145 183.075 125.22 180.7 125.22H173.5C171.125 125.22 169.2 127.145 169.2 129.52V131.3C169.2 133.674 171.125 135.6 173.5 135.6Z" fill="#D4EBE7"/>
<g id="Vector_6" style="mix-blend-mode:multiply">
<path d="M183.4 188.3H41.5004C39.5122 188.3 37.9004 189.912 37.9004 191.9V193.33C37.9004 195.318 39.5122 196.93 41.5004 196.93H183.4C185.389 196.93 187 195.318 187 193.33V191.9C187 189.912 185.389 188.3 183.4 188.3Z" fill="#A4D7D5"/>
</g>
<path id="Vector_7" d="M168.5 118.2H56.4004L106.6 65.1004C107.348 64.3137 108.247 63.6872 109.244 63.2592C110.242 62.8311 111.315 62.6104 112.4 62.6104C113.485 62.6104 114.559 62.8311 115.556 63.2592C116.553 63.6872 117.453 64.3137 118.2 65.1004L168.5 118.2Z" fill="#F4970E"/>
<path id="Vector_8" d="M151.7 75.5H63.6004C61.5569 75.5 59.9004 77.1565 59.9004 79.2V141.8C59.9004 143.843 61.5569 145.5 63.6004 145.5H151.7C153.744 145.5 155.4 143.843 155.4 141.8V79.2C155.4 77.1565 153.744 75.5 151.7 75.5Z" fill="#EEEDED"/>
<path id="Vector_9" d="M56.8004 83.0996H82.0004C84.9827 83.0996 87.4004 80.6819 87.4004 77.6996V74.0396C87.4004 71.0573 84.9827 68.6396 82.0004 68.6396H56.8004C53.8181 68.6396 51.4004 71.0573 51.4004 74.0396V77.6996C51.4004 80.6819 53.8181 83.0996 56.8004 83.0996Z" fill="#4ABAB5"/>
<path id="Vector_10" d="M63.5 72.9004H73.5C76.8137 72.9004 79.5 70.2141 79.5 66.9004V64.4404C79.5 61.1267 76.8137 58.4404 73.5 58.4404H63.5C60.1863 58.4404 57.5 61.1267 57.5 64.4404V66.9004C57.5 70.2141 60.1863 72.9004 63.5 72.9004Z" fill="#4ABAB5"/>
<path id="Vector_11" opacity="0.1" d="M163.101 77.2998H75.0008C72.9573 77.2998 71.3008 78.9564 71.3008 80.9998V143.6C71.3008 145.643 72.9573 147.3 75.0008 147.3H163.101C165.144 147.3 166.801 145.643 166.801 143.6V80.9998C166.801 78.9564 165.144 77.2998 163.101 77.2998Z" fill="#020303"/>
<path id="Vector_12" d="M160.7 80H72.6004C70.5569 80 68.9004 81.6565 68.9004 83.7V146.3C68.9004 148.343 70.5569 150 72.6004 150H160.7C162.744 150 164.4 148.343 164.4 146.3V83.7C164.4 81.6565 162.744 80 160.7 80Z" fill="#F8F7F7"/>
<path id="Vector_13" opacity="0.1" d="M156.499 89.5996H68.3992C66.3558 89.5996 64.6992 91.2562 64.6992 93.2996V155.9C64.6992 157.943 66.3558 159.6 68.3992 159.6H156.499C158.543 159.6 160.199 157.943 160.199 155.9V93.2996C160.199 91.2562 158.543 89.5996 156.499 89.5996Z" fill="#020303"/>
<path id="Vector_14" d="M154 80H73.2004C70.8256 80 68.9004 81.9252 68.9004 84.3V175.77C68.9004 178.145 70.8256 180.07 73.2004 180.07H154C156.375 180.07 158.3 178.145 158.3 175.77V84.3C158.3 81.9252 156.375 80 154 80Z" fill="white"/>
<path id="Vector_15" d="M144.4 124.5H75.8996C75.4578 124.5 75.0996 124.858 75.0996 125.3V125.66C75.0996 126.102 75.4578 126.46 75.8996 126.46H144.4C144.841 126.46 145.2 126.102 145.2 125.66V125.3C145.2 124.858 144.841 124.5 144.4 124.5Z" fill="#B5BBC2"/>
<path id="Vector_16" d="M144.4 131H75.8996C75.4578 131 75.0996 131.358 75.0996 131.8V132.16C75.0996 132.602 75.4578 132.96 75.8996 132.96H144.4C144.841 132.96 145.2 132.602 145.2 132.16V131.8C145.2 131.358 144.841 131 144.4 131Z" fill="#B5BBC2"/>
<path id="Vector_17" d="M144.4 137.5H75.8996C75.4578 137.5 75.0996 137.858 75.0996 138.3V138.66C75.0996 139.102 75.4578 139.46 75.8996 139.46H144.4C144.841 139.46 145.2 139.102 145.2 138.66V138.3C145.2 137.858 144.841 137.5 144.4 137.5Z" fill="#B5BBC2"/>
<path id="Vector_18" d="M144.4 144.1H75.8996C75.4578 144.1 75.0996 144.458 75.0996 144.9V145.26C75.0996 145.701 75.4578 146.06 75.8996 146.06H144.4C144.841 146.06 145.2 145.701 145.2 145.26V144.9C145.2 144.458 144.841 144.1 144.4 144.1Z" fill="#B5BBC2"/>
<path id="Vector_19" d="M144.4 150.6H75.8996C75.4578 150.6 75.0996 150.958 75.0996 151.4V151.76C75.0996 152.201 75.4578 152.56 75.8996 152.56H144.4C144.841 152.56 145.2 152.201 145.2 151.76V151.4C145.2 150.958 144.841 150.6 144.4 150.6Z" fill="#B5BBC2"/>
<path id="Vector_20" d="M144.7 116.9H76.2004C75.7586 116.9 75.4004 117.259 75.4004 117.7V118.06C75.4004 118.502 75.7586 118.86 76.2004 118.86H144.7C145.142 118.86 145.5 118.502 145.5 118.06V117.7C145.5 117.259 145.142 116.9 144.7 116.9Z" fill="#B5BBC2"/>
<path id="Vector_21" d="M145.7 109.4H77.2004C76.7586 109.4 76.4004 109.759 76.4004 110.2V110.56C76.4004 111.002 76.7586 111.36 77.2004 111.36H145.7C146.142 111.36 146.5 111.002 146.5 110.56V110.2C146.5 109.759 146.142 109.4 145.7 109.4Z" fill="#B5BBC2"/>
<g id="Vector_22" style="mix-blend-mode:multiply" opacity="0.33">
<path d="M153.2 128.1V164.4C153.2 167.265 152.063 170.012 150.037 172.037C148.012 174.062 145.265 175.2 142.4 175.2H56.4004V179.7C56.4004 181.118 56.6797 182.523 57.2225 183.833C57.7652 185.143 58.5608 186.334 59.5636 187.337C60.5665 188.34 61.7571 189.135 63.0674 189.678C64.3777 190.221 65.7821 190.5 67.2004 190.5H157.7C160.557 190.474 163.289 189.328 165.308 187.308C167.328 185.288 168.474 182.556 168.5 179.7V118.2L153.2 128.1Z" fill="#F8AC1F"/>
</g>
<g id="Vector_23" style="mix-blend-mode:screen">
<path d="M67.1996 155.3H65.8996C64.3532 155.3 63.0996 156.553 63.0996 158.1V166.03C63.0996 167.576 64.3532 168.83 65.8996 168.83H67.1996C68.746 168.83 69.9996 167.576 69.9996 166.03V158.1C69.9996 156.553 68.746 155.3 67.1996 155.3Z" fill="#F8AC1F"/>
</g>
<g id="Vector_24" style="mix-blend-mode:screen">
<path d="M67.1996 145H65.8996C64.3532 145 63.0996 146.254 63.0996 147.8V149.97C63.0996 151.516 64.3532 152.77 65.8996 152.77H67.1996C68.746 152.77 69.9996 151.516 69.9996 149.97V147.8C69.9996 146.254 68.746 145 67.1996 145Z" fill="#F8AC1F"/>
</g>
<path id="Vector_25" d="M109.599 93.5H76.9992C76.5574 93.5 76.1992 93.8582 76.1992 94.3V94.66C76.1992 95.1018 76.5574 95.46 76.9992 95.46H109.599C110.041 95.46 110.399 95.1018 110.399 94.66V94.3C110.399 93.8582 110.041 93.5 109.599 93.5Z" fill="#B5BBC2"/>
<path id="Vector_26" d="M126.799 102H76.9992C76.5574 102 76.1992 102.358 76.1992 102.8V103.16C76.1992 103.602 76.5574 103.96 76.9992 103.96H126.799C127.241 103.96 127.599 103.602 127.599 103.16V102.8C127.599 102.358 127.241 102 126.799 102Z" fill="#B5BBC2"/>
<path id="Vector_27" opacity="0.15" d="M182.171 171.979C188.966 165.184 188.966 154.167 182.171 147.372C175.376 140.577 164.359 140.577 157.563 147.372C150.768 154.167 150.768 165.184 157.563 171.979C164.359 178.775 175.376 178.775 182.171 171.979Z" fill="#020303"/>
<path id="Vector_28" d="M179.966 169.226C186.761 162.43 186.761 151.413 179.966 144.618C173.171 137.823 162.153 137.823 155.358 144.618C148.563 151.413 148.563 162.43 155.358 169.226C162.153 176.021 173.171 176.021 179.966 169.226Z" fill="#991915"/>
<path id="Vector_29" d="M184.999 156.9C184.999 159.185 184.549 161.448 183.675 163.559C182.8 165.67 181.519 167.588 179.903 169.204C178.287 170.819 176.369 172.101 174.258 172.976C172.147 173.85 169.884 174.3 167.599 174.3C164.773 174.298 161.989 173.615 159.483 172.31C156.976 171.004 154.821 169.114 153.199 166.8C156.567 169.078 160.623 170.112 164.67 169.725C168.717 169.338 172.503 167.553 175.378 164.679C178.253 161.804 180.037 158.018 180.424 153.971C180.811 149.923 179.777 145.868 177.499 142.5C179.814 144.122 181.703 146.277 183.009 148.783C184.314 151.29 184.997 154.074 184.999 156.9Z" fill="#CC3617"/>
<g id="Group_2" style="mix-blend-mode:multiply">
<path id="Vector_30" d="M10.5992 164.9H39.2992C42.2816 164.9 44.6992 162.483 44.6992 159.5V157.3C44.6992 154.318 42.2816 151.9 39.2992 151.9H10.5992C7.61688 151.9 5.19922 154.318 5.19922 157.3V159.5C5.19922 162.483 7.61688 164.9 10.5992 164.9Z" fill="#D0E9EB"/>
<path id="Vector_31" d="M18.1996 155.9H27.1996C30.1819 155.9 32.5996 153.483 32.5996 150.5V148.3C32.5996 145.318 30.1819 142.9 27.1996 142.9H18.1996C15.2173 142.9 12.7996 145.318 12.7996 148.3V150.5C12.7996 153.483 15.2173 155.9 18.1996 155.9Z" fill="#D0E9EB"/>
</g>
<path id="Vector_32" d="M8.4 163.1H37.1C40.0823 163.1 42.5 160.682 42.5 157.7V155.5C42.5 152.517 40.0823 150.1 37.1 150.1H8.4C5.41766 150.1 3 152.517 3 155.5V157.7C3 160.682 5.41766 163.1 8.4 163.1Z" fill="#F8AF1B"/>
<path id="Vector_33" d="M16.1 154H25.1C28.0823 154 30.5 151.582 30.5 148.6V146.4C30.5 143.418 28.0823 141 25.1 141H16.1C13.1177 141 10.7 143.418 10.7 146.4V148.6C10.7 151.582 13.1177 154 16.1 154Z" fill="#F8AF1B"/>
<path id="Vector_34" d="M58.8 96.9004L57 98.1004" stroke="#0785C5" stroke-width="0.54" stroke-miterlimit="10"/>
<path id="Vector_35" d="M53.4994 100.6C49.3994 103.6 45.4994 106.9 42.7994 111.2C38.8994 117.2 37.6994 125.7 41.9994 131.5C46.2994 137.3 52.1994 138.3 58.2994 139C72.4994 140.6 86.9994 137.8 100.299 132.6C113.599 127.4 125.899 119.8 137.699 111.6C143.215 107.97 148.342 103.781 152.999 99.0996C157.999 93.6996 160.299 86.7996 163.399 80.0996C164.399 77.8996 165.299 74.8996 163.499 73.1996C162.998 72.7646 162.405 72.4488 161.764 72.2756C161.123 72.1024 160.452 72.0764 159.799 72.1996C158.463 72.3944 157.203 72.9419 156.148 73.7855C155.094 74.6292 154.283 75.7386 153.799 76.9996C153.307 78.2471 153.141 79.5994 153.316 80.929C153.491 82.2586 154.001 83.5218 154.799 84.5996C157.099 87.4996 161.299 88.2996 164.899 87.5996C168.499 86.8996 171.599 84.6996 174.499 82.3996C180.631 77.5864 186.051 71.9304 190.599 65.5996" stroke="#0785C5" stroke-width="0.54" stroke-miterlimit="10" stroke-dasharray="4.29 4.29"/>
<path id="Vector_36" d="M191.801 63.8L193.001 62" stroke="#0785C5" stroke-width="0.54" stroke-miterlimit="10"/>
<path id="Vector_37" opacity="0.5" d="M37.0996 104.2C37.0996 104.996 36.7835 105.759 36.2209 106.322C35.6583 106.884 34.8953 107.2 34.0996 107.2C33.304 107.2 32.5409 106.884 31.9783 106.322C31.4157 105.759 31.0996 104.996 31.0996 104.2C31.0996 103.405 31.4157 102.641 31.9783 102.079C32.5409 101.516 33.304 101.2 34.0996 101.2C34.8953 101.2 35.6583 101.516 36.2209 102.079C36.7835 102.641 37.0996 103.405 37.0996 104.2Z" fill="white"/>
<path id="Vector_38" opacity="0.5" d="M97.4 63.1002C97.4812 63.5469 97.4633 64.006 97.3475 64.4451C97.2318 64.8841 97.021 65.2924 96.73 65.641C96.4391 65.9896 96.0751 66.2701 95.6639 66.4625C95.2526 66.6549 94.8041 66.7547 94.35 66.7547C93.8959 66.7547 93.4474 66.6549 93.0362 66.4625C92.6249 66.2701 92.2609 65.9896 91.97 65.641C91.679 65.2924 91.4682 64.8841 91.3525 64.4451C91.2367 64.006 91.2188 63.5469 91.3 63.1002C91.4299 62.3859 91.8063 61.7398 92.3637 61.2747C92.9211 60.8095 93.624 60.5547 94.35 60.5547C95.076 60.5547 95.7789 60.8095 96.3363 61.2747C96.8937 61.7398 97.2701 62.3859 97.4 63.1002Z" fill="white"/>
<path id="Vector_39" opacity="0.5" d="M49.3996 172.6C49.4193 173.221 49.2519 173.834 48.919 174.359C48.5861 174.884 48.1032 175.297 47.5328 175.543C46.9625 175.79 46.3311 175.86 45.7206 175.744C45.11 175.627 44.5486 175.33 44.1091 174.891C43.6697 174.451 43.3724 173.89 43.256 173.279C43.1396 172.669 43.2094 172.037 43.4563 171.467C43.7033 170.897 44.1159 170.414 44.6408 170.081C45.1656 169.748 45.7784 169.58 46.3996 169.6C47.1953 169.6 47.9583 169.916 48.5209 170.479C49.0835 171.041 49.3996 171.805 49.3996 172.6Z" fill="white"/>
<path id="Vector_40" opacity="0.5" d="M23.5992 120.4C26.8577 120.4 29.4992 117.758 29.4992 114.5C29.4992 111.241 26.8577 108.6 23.5992 108.6C20.3407 108.6 17.6992 111.241 17.6992 114.5C17.6992 117.758 20.3407 120.4 23.5992 120.4Z" fill="white"/>
<path id="Vector_41" opacity="0.5" d="M198.344 148.397C200.219 146.523 200.219 143.483 198.344 141.609C196.47 139.734 193.431 139.734 191.556 141.609C189.682 143.483 189.682 146.523 191.556 148.397C193.431 150.272 196.47 150.272 198.344 148.397Z" fill="white"/>
<path id="Vector_42" opacity="0.5" d="M198.299 157C198.299 157.875 197.952 158.715 197.333 159.334C196.714 159.953 195.874 160.3 194.999 160.3C194.124 160.3 193.285 159.953 192.666 159.334C192.047 158.715 191.699 157.875 191.699 157C191.699 156.125 192.047 155.286 192.666 154.667C193.285 154.048 194.124 153.7 194.999 153.7C195.874 153.7 196.714 154.048 197.333 154.667C197.952 155.286 198.299 156.125 198.299 157Z" fill="white"/>
<g id="Vector_43" style="mix-blend-mode:multiply" opacity="0.33">
<path d="M58.5996 125.1L112.4 160.9L163.7 128.6" stroke="#F8AC1F" stroke-width="1.08" stroke-linecap="round" stroke-linejoin="round"/>
</g>
<g id="Group_3" style="mix-blend-mode:multiply">
<path id="Vector_44" d="M217 116.101H182.6C179.01 116.101 176.1 119.011 176.1 122.601V125.191C176.1 128.78 179.01 131.691 182.6 131.691H217C220.589 131.691 223.5 128.78 223.5 125.191V122.601C223.5 119.011 220.589 116.101 217 116.101Z" fill="#D0E9EB"/>
<path id="Vector_45" d="M201.8 105.2H191C187.41 105.2 184.5 108.11 184.5 111.7V114.29C184.5 117.88 187.41 120.79 191 120.79H201.8C205.39 120.79 208.3 117.88 208.3 114.29V111.7C208.3 108.11 205.39 105.2 201.8 105.2Z" fill="#D0E9EB"/>
</g>
<path id="Vector_46" d="M213.4 113.3H179C175.41 113.3 172.5 116.21 172.5 119.8V122.39C172.5 125.98 175.41 128.89 179 128.89H213.4C216.99 128.89 219.9 125.98 219.9 122.39V119.8C219.9 116.21 216.99 113.3 213.4 113.3Z" fill="#4ABAB5"/>
<path id="Vector_47" d="M198.3 102.4H187.5C183.91 102.4 181 105.311 181 108.9V111.49C181 115.08 183.91 117.99 187.5 117.99H198.3C201.89 117.99 204.8 115.08 204.8 111.49V108.9C204.8 105.311 201.89 102.4 198.3 102.4Z" fill="#4ABAB5"/>
<g id="Vector_48" style="mix-blend-mode:screen">
<path d="M184.499 113C184.499 113 181.899 106 189.499 104.8" stroke="#4ABAB5" stroke-width="2.17" stroke-miterlimit="10" stroke-linecap="round"/>
</g>
<path id="Vector_49" d="M26.6004 156.4L27.2004 153.6L25.2004 153.2C25.2231 152.779 25.1186 152.36 24.9004 152L26.5004 150.7L24.7004 148.4L23.0004 149.8L22.0004 149.3V147.1H19.1004V149.3C18.6262 149.395 18.181 149.601 17.8004 149.9L16.1004 148.6L14.4004 151L16.1004 152.2C15.9851 152.59 15.918 152.993 15.9004 153.4L13.9004 153.9L14.6004 156.7L16.5004 156.2L17.4004 157.2L16.6004 159L19.2004 160.2L20.0004 158.4H21.3004L22.2004 160.1L24.8004 158.8L23.9004 157C24.2203 156.713 24.4906 156.375 24.7004 156L26.6004 156.4ZM17.8004 153.7C17.8004 152.984 18.0849 152.297 18.5912 151.79C19.0976 151.284 19.7843 151 20.5004 151C21.226 150.999 21.9234 151.28 22.4458 151.784C22.9681 152.288 23.2745 152.974 23.3004 153.7C23.2755 154.434 22.9725 155.132 22.4527 155.652C21.9329 156.172 21.2351 156.475 20.5004 156.5C19.7753 156.474 19.0885 156.167 18.5848 155.645C18.0812 155.123 17.7999 154.425 17.8004 153.7Z" fill="#FDFCFE"/>
<path id="Vector_50" d="M187.999 123C187.841 123.02 187.681 122.993 187.538 122.922C187.395 122.851 187.277 122.739 187.199 122.6C187.143 122.47 187.123 122.327 187.141 122.186C187.159 122.046 187.213 121.912 187.299 121.8L187.499 121.5L198.299 110.7C198.382 110.588 198.486 110.495 198.607 110.426C198.728 110.357 198.861 110.314 198.999 110.3C199.141 110.299 199.28 110.335 199.403 110.405C199.526 110.475 199.628 110.577 199.699 110.7C199.797 110.81 199.852 110.952 199.852 111.1C199.852 111.247 199.797 111.39 199.699 111.5L199.399 111.9L188.599 122.6C188.399 122.8 188.199 123 187.999 123Z" fill="white"/>
<path id="Vector_51" d="M192.299 112.7C192.299 113.254 192.135 113.796 191.827 114.256C191.52 114.716 191.082 115.075 190.571 115.287C190.059 115.499 189.496 115.555 188.953 115.447C188.41 115.339 187.911 115.072 187.519 114.68C187.128 114.289 186.861 113.79 186.753 113.247C186.645 112.703 186.7 112.141 186.912 111.629C187.124 111.117 187.483 110.68 187.944 110.372C188.404 110.065 188.945 109.9 189.499 109.9C190.234 109.925 190.932 110.228 191.451 110.748C191.971 111.268 192.274 111.966 192.299 112.7Z" fill="white"/>
<path id="Vector_52" d="M200.9 120.4C200.977 120.805 200.964 121.222 200.862 121.622C200.76 122.021 200.57 122.393 200.308 122.711C200.045 123.029 199.715 123.284 199.342 123.46C198.969 123.636 198.562 123.727 198.15 123.727C197.737 123.727 197.33 123.636 196.957 123.46C196.584 123.284 196.254 123.029 195.991 122.711C195.729 122.393 195.539 122.021 195.437 121.622C195.335 121.222 195.322 120.805 195.4 120.4C195.322 119.995 195.335 119.578 195.437 119.178C195.539 118.779 195.729 118.407 195.991 118.089C196.254 117.771 196.584 117.516 196.957 117.34C197.33 117.164 197.737 117.073 198.15 117.073C198.562 117.073 198.969 117.164 199.342 117.34C199.715 117.516 200.045 117.771 200.308 118.089C200.57 118.407 200.76 118.779 200.862 119.178C200.964 119.578 200.977 119.995 200.9 120.4Z" fill="white"/>
<path id="Vector_53" opacity="0.2" d="M189.501 111.5C189.819 111.5 190.124 111.626 190.349 111.851C190.574 112.077 190.701 112.382 190.701 112.7C190.678 113.011 190.544 113.303 190.324 113.523C190.103 113.743 189.811 113.877 189.501 113.9C189.183 113.9 188.877 113.774 188.652 113.549C188.427 113.323 188.301 113.018 188.301 112.7C188.301 112.382 188.427 112.077 188.652 111.851C188.877 111.626 189.183 111.5 189.501 111.5Z" fill="white"/>
<path id="Vector_54" d="M171.999 81.9998C170.699 80.6998 169.299 79.3998 168.099 78.0998C167.572 77.5735 167.268 76.8645 167.249 76.1198C167.23 75.3751 167.499 74.6518 167.999 74.0998L172.499 69.5998L180.899 61.1998C181.892 60.1242 183.243 59.4485 184.699 59.2998H192.099C192.64 59.3764 193.155 59.5822 193.599 59.8998C193.699 59.9998 193.799 60.0998 193.799 60.1998C193.799 60.2528 193.778 60.3037 193.741 60.3412C193.703 60.3787 193.652 60.3998 193.599 60.3998C192.599 61.4998 191.499 62.5998 190.399 63.5998C189.299 64.5998 190.299 63.7998 190.099 63.7998H189.799C189.677 63.7518 189.542 63.7454 189.416 63.7815C189.289 63.8176 189.178 63.8943 189.099 63.9998C188.996 64.1024 188.924 64.2311 188.888 64.3721C188.853 64.513 188.857 64.6609 188.899 64.7998C188.935 64.8404 188.963 64.8879 188.98 64.9395C188.997 64.9911 189.004 65.0456 188.999 65.0998V65.2998L186.999 67.2998H186.799C186.399 67.0998 186.399 67.0998 186.099 67.3998L185.499 67.9998C185.399 68.1998 185.299 68.0998 185.099 67.9998L184.299 67.0998C184.099 66.8998 184.099 66.8998 184.299 66.6998L185.699 65.2998C185.742 65.2623 185.776 65.2161 185.799 65.1644C185.823 65.1127 185.835 65.0566 185.835 64.9998C185.835 64.9431 185.823 64.887 185.799 64.8352C185.776 64.7835 185.742 64.7373 185.699 64.6998C185.499 64.3998 185.299 64.3998 185.099 64.5998L183.099 66.6998C182.799 66.9998 182.799 67.0998 183.099 67.3998L184.699 68.9998L184.899 69.1998L184.399 69.6998L182.799 71.2998H182.699C182.522 71.2196 182.379 71.0774 182.299 70.8998L180.699 69.4998C180.499 69.1998 180.299 69.2998 179.999 69.4998C179.908 69.5933 179.856 69.7189 179.856 69.8498C179.856 69.9807 179.908 70.1063 179.999 70.1998L181.599 71.7998L181.799 71.9998L180.899 72.9998H180.799L178.399 71.7998C177.899 71.4998 177.599 71.5998 177.299 72.0998C177.247 72.191 177.219 72.2945 177.219 72.3998C177.219 72.5051 177.247 72.6086 177.299 72.6998C177.594 73.3204 177.928 73.9216 178.299 74.4998L178.599 75.0998V75.2998L177.599 76.1998V76.4998H177.399L176.199 76.7998C175.851 76.9593 175.48 77.0606 175.099 77.0998C174.599 76.9998 174.299 76.5998 174.499 76.1998C174.692 75.7502 175.05 75.392 175.499 75.1998H175.799C175.861 75.1532 175.912 75.0928 175.947 75.0234C175.981 74.954 175.999 74.8774 175.999 74.7998C175.999 74.6937 175.957 74.592 175.882 74.517C175.807 74.4419 175.705 74.3998 175.599 74.3998H175.299C174.936 74.5405 174.606 74.7555 174.33 75.031C174.055 75.3065 173.84 75.6365 173.699 75.9998C173.579 76.255 173.533 76.539 173.567 76.8191C173.601 77.0992 173.713 77.3641 173.89 77.5834C174.068 77.8027 174.303 77.9675 174.57 78.0588C174.837 78.1502 175.125 78.1644 175.399 78.0998H175.599C175.699 78.1998 175.599 78.2998 175.499 78.2998L175.299 78.5998L172.199 81.7998C172.099 81.7998 172.099 81.8998 171.999 81.9998Z" fill="#9B1918"/>
<path id="Vector_55" d="M186.7 67.1996L188.8 65.0996L189 64.8996C189.1 64.7996 189.2 64.8996 189.3 64.9996C189.439 65.0421 189.587 65.0459 189.728 65.0106C189.869 64.9754 189.997 64.9024 190.1 64.7996C190.213 64.7025 190.286 64.5668 190.304 64.4189C190.323 64.271 190.286 64.1216 190.2 63.9996C190.2 63.8996 190.1 63.7996 190.1 63.6996C190.1 63.5996 190.3 63.5996 190.4 63.4996C190.5 63.3996 192.5 61.3996 193.6 60.2996L193.8 60.0996L194.1 60.2996C194.411 60.7016 194.586 61.1918 194.6 61.6996H194.7V68.9996C194.572 69.2551 194.472 69.5232 194.4 69.7996C194.102 70.9812 193.479 72.0554 192.6 72.8996L180 85.5996C179.716 85.9278 179.362 86.188 178.964 86.3611C178.566 86.5342 178.134 86.6157 177.7 86.5996C177.322 86.5979 176.949 86.5169 176.604 86.3618C176.26 86.2068 175.952 85.9812 175.7 85.6996C174.5 84.4996 173.2 83.2996 172 81.9996L172.2 81.6996C173.2 80.5996 174.3 79.5996 175.4 78.4996L175.6 78.2996H175.7L176.7 77.8996H177.5C177.648 77.8735 177.801 77.8961 177.936 77.9639C178.071 78.0317 178.18 78.1412 178.247 78.276C178.315 78.4108 178.337 78.5638 178.31 78.7122C178.284 78.8606 178.21 78.9965 178.1 79.0996C177.997 79.2842 177.853 79.4431 177.68 79.5643C177.507 79.6856 177.309 79.766 177.1 79.7996H176.7C176.5 79.7996 176.4 79.8996 176.3 80.0996C176.291 80.2039 176.316 80.3082 176.37 80.3979C176.423 80.4876 176.504 80.5581 176.6 80.5996H177.1C177.54 80.5193 177.953 80.3311 178.302 80.0518C178.651 79.7726 178.925 79.411 179.1 78.9996C179.226 78.7021 179.265 78.3748 179.212 78.0559C179.159 77.7371 179.016 77.4401 178.8 77.1996C178.493 76.9057 178.113 76.6987 177.7 76.5996H177.5C177.815 76.2133 178.186 75.8763 178.6 75.5996C178.8 75.6996 178.9 75.9996 179 76.1996L179.8 77.6996C180 77.9996 180.2 78.0996 180.5 77.8996C180.8 77.6996 180.9 77.4996 180.7 77.1996C180.602 76.978 180.467 76.775 180.3 76.5996C180.2 76.3996 180.2 76.2996 180.4 76.0996L181.4 75.0996C181.6 74.8996 181.7 74.8996 181.9 74.9996L182.6 75.3996C182.9 75.4996 183 75.4996 183.2 75.1996C183.4 74.8996 183.3 74.6996 183.1 74.5996L181.6 73.6996C181.3 73.5996 181 73.4996 180.9 73.2996L181.8 72.2996C182 72.2996 182 72.3996 182.1 72.4996C182.682 72.9818 183.218 73.5175 183.7 74.0996C183.793 74.1912 183.919 74.2425 184.05 74.2425C184.181 74.2425 184.307 74.1912 184.4 74.0996L186.2 72.2996C186.4 72.0996 186.4 71.8996 186.1 71.6996C185.8 71.4996 185.8 71.4996 185.6 71.6996L184.4 72.8996C184.2 73.0996 184.1 73.0996 183.9 72.8996L182.8 71.7996C182.764 71.759 182.736 71.7115 182.719 71.6599C182.702 71.6083 182.695 71.5538 182.7 71.4996L184.8 69.4996C184.9 69.3996 185 69.5996 185 69.5996L186.6 71.1996C186.9 71.4996 187 71.4996 187.3 71.1996C188.016 70.5838 188.684 69.9153 189.3 69.1996C189.362 69.153 189.412 69.0926 189.447 69.0232C189.482 68.9538 189.5 68.8772 189.5 68.7996L189.1 68.3996C189.022 68.3996 188.946 68.4177 188.876 68.4524C188.807 68.4871 188.747 68.5375 188.7 68.5996L187.4 69.9996C187.1 70.1996 187.1 70.1996 186.8 69.9996L186 69.0996C185.8 68.9996 185.8 68.8996 186 68.6996L186.4 68.2996C186.7 67.7996 186.9 67.4996 186.7 67.1996Z" fill="#E73330"/>
<path id="Vector_56" d="M180.999 73.2998L183.199 74.4998C183.295 74.5413 183.376 74.6119 183.43 74.7015C183.483 74.7912 183.508 74.8956 183.499 74.9998C183.499 75.1998 183.199 75.4998 182.999 75.5998H182.699L181.999 75.1998H181.699L180.499 76.2998C180.478 76.3186 180.461 76.3417 180.449 76.3675C180.438 76.3934 180.432 76.4214 180.432 76.4498C180.432 76.4782 180.438 76.5062 180.449 76.5321C180.461 76.558 180.478 76.581 180.499 76.5998L180.899 77.3998C180.94 77.4272 180.974 77.4643 180.998 77.5079C181.021 77.5516 181.033 77.6003 181.033 77.6498C181.033 77.6993 181.021 77.748 180.998 77.7917C180.974 77.8353 180.94 77.8724 180.899 77.8998C180.745 78.0734 180.53 78.1809 180.299 78.1998C180.099 78.1998 179.999 78.0998 179.899 77.8998L178.699 75.6998C178.889 75.3912 179.168 75.1473 179.499 74.9998H179.599L179.899 75.4998C179.899 75.5998 179.999 75.5998 180.099 75.4998L180.699 74.8998C180.721 74.881 180.738 74.858 180.749 74.8321C180.761 74.8062 180.767 74.7782 180.767 74.7498C180.767 74.7214 180.761 74.6934 180.749 74.6675C180.738 74.6416 180.721 74.6186 180.699 74.5998C180.499 74.4998 180.299 74.4998 180.199 74.2998L180.899 73.5998L180.999 73.2998Z" fill="white"/>
<path id="Vector_57" d="M177.7 76.7002C178.02 76.7355 178.326 76.8515 178.588 77.0374C178.851 77.2232 179.063 77.4728 179.203 77.7627C179.343 78.0526 179.407 78.3733 179.389 78.6947C179.371 79.0161 179.271 79.3277 179.1 79.6002C178.899 79.9435 178.624 80.2381 178.295 80.4629C177.967 80.6876 177.593 80.8369 177.2 80.9002C176.8 81.0002 176.5 80.7002 176.4 80.3002C176.3 79.9002 176.5 79.9002 176.8 79.8002H177.4L178.2 79.3002C178.4 78.9002 178.4 78.6002 178.2 78.4002C178.1 78.1002 177.7 78.0002 177.3 78.1002L176.2 78.4002H175.9C175.8 78.3002 175.9 78.3002 175.9 78.2002L177.3 76.8002H177.7V76.7002Z" fill="white"/>
<path id="Vector_58" d="M184.9 69.2998L182.9 67.3998C182.849 67.3027 182.831 67.1913 182.849 67.0829C182.867 66.9744 182.92 66.8749 183 66.7998L184.8 64.9998L185.1 64.6998C185.3 64.4998 185.5 64.4998 185.8 64.6998C186.1 64.8998 186 65.1998 185.8 65.3998L184.3 66.8998C184.279 66.9186 184.262 66.9417 184.25 66.9675C184.239 66.9934 184.233 67.0214 184.233 67.0498C184.233 67.0782 184.239 67.1062 184.25 67.1321C184.262 67.158 184.279 67.181 184.3 67.1998L185.2 68.0998C185.219 68.1211 185.242 68.1381 185.268 68.1498C185.294 68.1615 185.322 68.1675 185.35 68.1675C185.379 68.1675 185.407 68.1615 185.433 68.1498C185.458 68.1381 185.482 68.1211 185.5 68.0998L186.2 67.3998C186.238 67.3572 186.284 67.3232 186.336 67.2998C186.387 67.2765 186.444 67.2644 186.5 67.2644C186.557 67.2644 186.613 67.2765 186.665 67.2998C186.717 67.3232 186.763 67.3572 186.8 67.3998C186.9 67.4998 186.8 67.5998 186.7 67.5998C186.218 68.1819 185.682 68.7176 185.1 69.1998C185.1 69.2998 185 69.3998 184.9 69.2998Z" fill="white"/>
<path id="Vector_59" d="M184.9 69.3004C185.583 68.7182 186.218 68.0829 186.8 67.4004H186.9C187.1 67.7004 187.1 67.8004 186.8 68.1004C186.543 68.3079 186.308 68.5426 186.1 68.8004C186 68.8004 186 68.9004 186.1 69.0004L187.1 70.0004C187.2 70.1004 187.3 70.0004 187.3 69.9004L188.8 68.5004C189.1 68.2004 189.3 68.2004 189.5 68.5004C189.7 68.8004 189.8 68.9004 189.5 69.2004L187.5 71.2004C187.2 71.5004 187 71.5004 186.7 71.2004L184.9 69.4004V69.3004Z" fill="white"/>
<path id="Vector_60" d="M177.501 76.6999L176.101 78.1999C176.001 78.2999 175.901 78.2999 175.901 78.3999H175.701C175.39 78.4693 175.065 78.4499 174.765 78.3438C174.464 78.2377 174.199 78.0492 174.001 77.7999C173.83 77.5948 173.712 77.35 173.66 77.088C173.608 76.826 173.622 76.555 173.701 76.2999C174.012 75.502 174.622 74.8565 175.401 74.4999C175.473 74.4665 175.551 74.4477 175.63 74.4448C175.71 74.4418 175.789 74.4546 175.864 74.4825C175.938 74.5104 176.006 74.5529 176.064 74.6074C176.122 74.6618 176.168 74.7273 176.201 74.7999C176.235 74.8573 176.253 74.9223 176.256 74.9889C176.258 75.0555 176.243 75.1217 176.214 75.1813C176.184 75.2409 176.14 75.2921 176.085 75.3303C176.03 75.3684 175.967 75.3924 175.901 75.3999C175.546 75.5029 175.232 75.7123 175.001 75.9999H174.901C174.601 76.3999 174.601 76.5999 174.801 76.8999C175.001 77.1999 175.201 77.1999 175.601 77.0999L176.401 76.7999C176.754 76.6777 177.132 76.6433 177.501 76.6999Z" fill="white"/>
<path id="Vector_61" d="M180.9 73.2998C180.72 73.5812 180.481 73.82 180.2 73.9998C180 74.0998 179.8 73.8998 179.7 73.8998L178.8 73.2998C178.994 73.7531 179.228 74.1881 179.5 74.5998V74.7998L178.9 75.2998C178.9 75.3528 178.879 75.4037 178.841 75.4412C178.804 75.4787 178.753 75.4998 178.7 75.4998C178.3 74.5998 177.8 73.7998 177.4 72.8998C177 71.9998 177.3 72.3998 177.6 72.1998C177.664 72.0765 177.768 71.9792 177.896 71.9245C178.024 71.8698 178.166 71.8611 178.3 71.8998L180.9 73.2998Z" fill="white"/>
<path id="Vector_62" d="M182.8 71.5003L184.1 72.9003H184.4L185.7 71.6003C185.738 71.5577 185.784 71.5236 185.836 71.5003C185.888 71.4769 185.944 71.4648 186 71.4648C186.057 71.4648 186.113 71.4769 186.165 71.5003C186.217 71.5236 186.263 71.5577 186.3 71.6003C186.6 71.9003 186.6 72.1003 186.4 72.3003L184.6 74.1003C184.2 74.4003 184.1 74.4003 183.8 74.1003L182.2 72.6003L181.9 72.3003C182.141 72.009 182.409 71.7411 182.7 71.5003H182.8Z" fill="white"/>
<path id="Vector_63" d="M182.7 71.4999C182.46 71.7912 182.192 72.059 181.9 72.2999L180 70.2999C179.9 70.1999 179.9 70.0999 179.9 69.8999C180.019 69.7154 180.194 69.5748 180.4 69.4999C180.414 69.4469 180.447 69.4013 180.494 69.3731C180.541 69.345 180.597 69.3366 180.65 69.3499C180.703 69.3632 180.749 69.397 180.777 69.4438C180.805 69.4907 180.814 69.5469 180.8 69.5999L182.7 71.4999Z" fill="white"/>
<path id="Vector_64" d="M190.3 63.8996C190.4 64.0996 190.5 64.1996 190.5 64.3996C190.506 64.5462 190.483 64.6925 190.431 64.8299C190.38 64.9673 190.301 65.093 190.2 65.1996C190.074 65.3054 189.915 65.3634 189.75 65.3634C189.586 65.3634 189.426 65.3054 189.3 65.1996H189.1C189.1 64.9996 188.9 64.8996 188.9 64.6996C188.908 64.5597 188.948 64.4236 189.017 64.3019C189.087 64.1803 189.183 64.0765 189.3 63.9988C189.416 63.9211 189.549 63.8717 189.688 63.8545C189.827 63.8373 189.968 63.8527 190.1 63.8996H190.3Z" fill="white"/>
<path id="Vector_65" d="M183.2 69.5996H183.1C183.115 69.6084 183.132 69.613 183.15 69.613C183.167 69.613 183.184 69.6084 183.2 69.5996Z" fill="white"/>
<path id="Vector_66" d="M180.2 74.1002C179.942 74.3077 179.707 74.5424 179.5 74.8002L178.6 73.2002L180.2 74.0002V74.1002Z" fill="#9B1918"/>
<path id="Vector_67" d="M160.4 165.3C160.426 164.992 160.569 164.705 160.8 164.5L167.2 156.7C167.342 156.499 167.553 156.357 167.793 156.301C168.033 156.246 168.285 156.281 168.5 156.4L171.8 158.1H172C172.7 156.7 173.4 155.4 174 154C174.6 152.6 174.1 153.8 173.9 153.7L172.8 153.2C172.624 153.133 172.478 153.006 172.386 152.841C172.295 152.676 172.264 152.485 172.3 152.3C172.3 151.9 172.5 151.7 172.9 151.5L176 150.5C176.111 150.453 176.231 150.432 176.352 150.438C176.472 150.443 176.589 150.477 176.695 150.534C176.801 150.592 176.892 150.673 176.963 150.771C177.033 150.869 177.08 150.981 177.1 151.1C177.5 152.1 177.8 153.2 178.2 154.2C178.272 154.367 178.291 154.552 178.256 154.731C178.22 154.909 178.131 155.073 178 155.2C177.851 155.288 177.684 155.342 177.511 155.36C177.339 155.377 177.164 155.356 177 155.3L175.8 154.7C175.7 154.6 175.6 154.6 175.6 154.8L173.1 159.6C172.8 160.2 172.4 160.4 171.8 160.1L168.4 158.4C168.382 158.378 168.359 158.361 168.333 158.35C168.307 158.338 168.279 158.332 168.25 158.332C168.222 158.332 168.194 158.338 168.168 158.35C168.142 158.361 168.119 158.378 168.1 158.4L162 165.8C161.893 165.929 161.752 166.025 161.593 166.078C161.434 166.131 161.263 166.139 161.1 166.1C160.991 166.078 160.889 166.03 160.802 165.96C160.715 165.891 160.646 165.801 160.6 165.7L160.4 165.3Z" fill="white"/>
<path id="Vector_68" d="M157.701 154.4C157.065 152.689 157.103 150.8 157.807 149.116C158.511 147.431 159.829 146.077 161.493 145.327C163.158 144.578 165.045 144.488 166.773 145.077C168.501 145.667 169.941 146.89 170.801 148.5C171.468 149.65 171.794 150.966 171.741 152.294C171.688 153.622 171.258 154.908 170.501 156C170.401 156.2 170.401 156.2 170.201 156.1L168.901 155.4C168.495 155.197 168.03 155.146 167.59 155.256C167.15 155.366 166.763 155.63 166.501 156L163.901 159.1H163.701C162.493 158.961 161.339 158.522 160.343 157.824C159.348 157.125 158.543 156.189 158.001 155.1L157.701 154.4Z" fill="white"/>
<path id="Vector_69" d="M164.499 150.2L163.699 150.5C163.558 150.546 163.438 150.644 163.364 150.773C163.29 150.902 163.267 151.055 163.299 151.2C163.321 151.269 163.357 151.333 163.406 151.387C163.454 151.441 163.514 151.483 163.58 151.512C163.647 151.54 163.719 151.554 163.791 151.552C163.863 151.55 163.935 151.532 163.999 151.5L164.999 151.2C165.4 151.187 165.795 151.294 166.134 151.508C166.473 151.722 166.739 152.033 166.899 152.4C167.017 152.779 167.012 153.186 166.887 153.563C166.761 153.939 166.521 154.267 166.199 154.5C166.099 154.6 165.999 154.7 166.099 154.9C166.136 154.941 166.163 154.988 166.18 155.04C166.198 155.091 166.204 155.146 166.199 155.2C166.399 155.6 166.199 155.9 165.799 156.1C165.399 156.3 165.199 156 164.999 155.6C164.799 155.2 164.899 155.3 164.899 155.2H164.699L164.099 155.4C163.927 155.465 163.736 155.46 163.567 155.385C163.399 155.31 163.267 155.172 163.199 155C163.168 154.828 163.202 154.651 163.294 154.503C163.387 154.355 163.531 154.247 163.699 154.2L165.299 153.6C165.384 153.584 165.463 153.547 165.528 153.491C165.594 153.436 165.644 153.365 165.674 153.284C165.704 153.204 165.713 153.117 165.7 153.032C165.687 152.948 165.652 152.868 165.599 152.8C165.522 152.722 165.428 152.663 165.323 152.628C165.219 152.594 165.108 152.584 164.999 152.6L164.199 152.9C163.777 152.982 163.338 152.918 162.957 152.718C162.575 152.518 162.273 152.194 162.099 151.8C161.966 151.422 161.962 151.01 162.088 150.63C162.215 150.249 162.466 149.922 162.799 149.7C162.899 149.6 162.999 149.5 162.899 149.3L162.699 148.9C162.699 148.6 162.799 148.2 163.099 148.1C163.247 148.055 163.406 148.06 163.551 148.114C163.695 148.168 163.818 148.269 163.899 148.4C163.999 148.5 163.999 148.8 164.099 149H164.299L164.899 148.7C165.073 148.657 165.255 148.673 165.418 148.745C165.581 148.818 165.716 148.943 165.799 149.1C165.835 149.285 165.805 149.477 165.713 149.641C165.622 149.806 165.475 149.933 165.299 150L164.499 150.2Z" fill="#991915"/>
<path id="Vector_70" d="M63.9004 64.9C63.8843 64.4974 63.9179 64.0944 64.0004 63.7C64.1013 63.1369 64.3784 62.6205 64.7918 62.2251C65.2052 61.8297 65.7334 61.5758 66.3004 61.5H67.1004C67.6817 61.5813 68.2206 61.8498 68.6356 62.2648C69.0506 62.6798 69.3191 63.2187 69.4004 63.8C69.4886 64.1596 69.5223 64.5304 69.5004 64.9V66C69.5004 66.1 69.4004 66.2 69.2004 66.2C69.0004 66.2 69.0004 66.2 68.9004 66V63.8C68.7489 63.2807 68.4332 62.8246 68.0004 62.5C67.5677 62.1754 67.0413 62 66.5004 62C65.9766 62.0672 65.4919 62.3127 65.1277 62.6951C64.7635 63.0775 64.542 63.5736 64.5004 64.1C64.4004 64.3 64.5004 64.6 64.5004 64.9V66.1C64.5004 66.3 64.4004 66.3 64.2004 66.3C64.1741 66.3 64.1481 66.2948 64.1239 66.2848C64.0996 66.2747 64.0776 66.26 64.059 66.2414C64.0404 66.2229 64.0257 66.2008 64.0156 66.1765C64.0056 66.1523 64.0004 66.1263 64.0004 66.1C63.8988 65.7065 63.8988 65.2935 64.0004 64.9H63.9004Z" fill="white"/>
<path id="Vector_71" d="M63.8992 64.8998V65.9998C63.8992 66.0794 63.9308 66.1557 63.9871 66.212C64.0433 66.2682 64.1197 66.2998 64.1992 66.2998C64.2992 66.2998 64.3992 66.1998 64.3992 65.9998V64.8998H68.6992C68.7992 64.8998 68.8992 64.8998 68.8992 64.9998C68.982 65.3603 69.0157 65.7303 68.9992 66.0998C68.9946 66.154 69.0011 66.2085 69.0183 66.2601C69.0355 66.3117 69.063 66.3592 69.0992 66.3998H69.3992C69.4992 66.3998 69.4992 66.2998 69.4992 66.1998V64.8998H70.7992C70.9219 64.9706 71.0236 65.0728 71.0938 65.1958C71.1641 65.3187 71.2005 65.4582 71.1992 65.5998L71.4992 68.2998C71.6095 68.8605 71.6764 69.4289 71.6992 69.9998C71.6992 70.1998 71.5992 70.1998 71.4992 70.2998L67.2992 74.4998C67.0992 74.7998 66.8992 74.9998 66.9992 75.3998H60.1992C60.1992 74.9998 60.2992 74.5998 60.2992 74.1998L60.5992 71.7998L60.8992 69.0998L61.1992 66.6998C61.1831 66.2972 61.2167 65.8942 61.2992 65.4998C61.3237 65.3054 61.4187 65.1268 61.5661 64.9977C61.7136 64.8687 61.9033 64.7983 62.0992 64.7998L63.8992 64.8998Z" fill="white"/>
<path id="Vector_72" d="M66.9008 75.5004C66.8934 75.1438 66.9983 74.794 67.2008 74.5004L71.5008 70.3004L71.7008 70.1004C71.8008 69.9004 72.0008 69.9004 72.2008 69.9004H75.6008C75.8008 70.1004 75.7008 70.3004 75.7008 70.5004V70.8004C75.7008 71.6004 75.6008 72.3004 75.6008 73.0004C75.5807 73.213 75.5123 73.4183 75.4008 73.6004C74.7008 74.2004 74.1008 74.9004 73.5008 75.5004C72.9008 76.1004 73.3008 75.7004 73.2008 75.5004C73.202 75.3587 73.1657 75.2193 73.0954 75.0963C73.0251 74.9733 72.9234 74.8712 72.8008 74.8004C72.6477 74.7003 72.465 74.6556 72.2831 74.6738C72.1011 74.692 71.9309 74.7719 71.8008 74.9004C71.6694 74.9819 71.5688 75.1046 71.5145 75.2493C71.4603 75.394 71.4554 75.5526 71.5008 75.7004C71.522 75.8787 71.6025 76.0447 71.7295 76.1717C71.8565 76.2986 72.0224 76.3792 72.2008 76.4004H72.4008C72.4008 76.5004 72.4008 76.6004 72.3008 76.6004L70.9008 78.1004C70.7425 78.2126 70.5574 78.2809 70.3642 78.2985C70.171 78.316 69.9766 78.2822 69.8008 78.2004L68.8008 77.2004H68.6008C68.6008 77.1004 68.5008 77.1004 68.5008 77.0004L67.1008 75.7004C67.0227 75.6461 66.955 75.5784 66.9008 75.5004Z" fill="#FECD39"/>
<path id="Vector_73" d="M66.8998 75.5L67.1998 75.9L68.5998 77.4H61.9998C61.5964 77.4063 61.2039 77.269 60.8925 77.0125C60.581 76.756 60.3709 76.3971 60.2998 76C60.2128 75.8487 60.1777 75.6731 60.1998 75.5H66.8998Z" fill="#E2E2E1"/>
<path id="Vector_74" d="M73.3008 75.8002C73.3008 75.9002 73.3008 75.9002 73.4008 75.8002L74.9008 74.3002L75.1008 74.1002C75.2669 73.971 75.3993 73.8034 75.4864 73.6118C75.5734 73.4202 75.6127 73.2103 75.6008 73.0002V70.9002C75.6475 70.7894 75.6716 70.6704 75.6716 70.5502C75.6716 70.43 75.6475 70.311 75.6008 70.2002C75.7235 70.2433 75.8288 70.3252 75.901 70.4334C75.9731 70.5416 76.0082 70.6704 76.0008 70.8002C76.0818 71.564 76.1152 72.3322 76.1008 73.1002V73.8002C76.1461 73.948 76.1413 74.1066 76.087 74.2513C76.0327 74.396 75.9321 74.5187 75.8008 74.6002L73.0008 77.4002L71.6008 78.9002C71.4139 79.0834 71.1625 79.1861 70.9008 79.1861C70.639 79.1861 70.3877 79.0834 70.2008 78.9002L69.8008 78.5002C70.0078 78.5763 70.233 78.5883 70.4469 78.5348C70.6609 78.4813 70.8539 78.3647 71.0008 78.2002L72.4008 76.8002H72.6008C72.7622 76.7312 72.9026 76.621 73.008 76.4806C73.1133 76.3402 73.1798 76.1745 73.2008 76.0002C73.1877 75.9936 73.1759 75.9845 73.1663 75.9734C73.1567 75.9624 73.1494 75.9495 73.1447 75.9356C73.1401 75.9216 73.1382 75.9069 73.1393 75.8923C73.1403 75.8776 73.1442 75.8633 73.1508 75.8502C73.1573 75.8371 73.1664 75.8254 73.1775 75.8157C73.1886 75.8061 73.2015 75.7988 73.2154 75.7941C73.2294 75.7895 73.2441 75.7876 73.2587 75.7887C73.2734 75.7897 73.2876 75.7936 73.3008 75.8002Z" fill="#E69014"/>
<path id="Vector_75" d="M72.5992 70H72.1992L71.6992 70.2C71.5992 69.8 71.5992 69.4 71.4992 69C71.3992 68.6 71.3992 68 71.3992 67.5C71.3992 67 71.2992 66.6 71.1992 66.1V65.7C71.1809 65.5509 71.1256 65.4087 71.0383 65.2864C70.9509 65.1641 70.8344 65.0657 70.6992 65H71.3992C71.5936 65.0245 71.7723 65.1195 71.9013 65.2669C72.0303 65.4144 72.1008 65.6041 72.0992 65.8L72.3992 68.6C72.4992 69 72.4992 69.5 72.5992 70Z" fill="#D3D3D3"/>
<path id="Vector_76" d="M73.1008 73.2004C73.1008 73.3004 73.1008 73.4004 73.0008 73.4004L70.4008 76.1004C70.3801 76.1437 70.3493 76.1814 70.3111 76.2104C70.2728 76.2393 70.2281 76.2587 70.1808 76.2668C70.1335 76.2749 70.0849 76.2716 70.0392 76.257C69.9935 76.2425 69.9519 76.2172 69.9179 76.1833C69.884 76.1493 69.8587 76.1077 69.8442 76.062C69.8296 76.0163 69.8263 75.9677 69.8344 75.9204C69.8425 75.8731 69.8619 75.8284 69.8908 75.7901C69.9198 75.7519 69.9575 75.7211 70.0008 75.7004L72.7008 73.1004C72.8008 73.0004 72.9008 72.9004 73.0008 73.0004C73.1008 73.1004 73.1008 73.1004 73.1008 73.2004Z" fill="#262E4D"/>
<path id="Vector_77" d="M73.3004 75.8004C73.2004 76.4004 73.0004 76.6004 72.4004 76.8004C71.8004 77.0004 71.4004 76.4004 71.4004 75.9004C71.4186 75.6576 71.5168 75.4277 71.6797 75.2468C71.8426 75.0658 72.0609 74.944 72.3004 74.9004C72.5227 74.899 72.7377 74.98 72.9039 75.1277C73.0701 75.2754 73.1757 75.4794 73.2004 75.7004L73.3004 75.8004Z" fill="#262E4D"/>
<path id="Vector_78" d="M69.8008 73.3004C69.8008 73.1224 69.8536 72.9484 69.9525 72.8004C70.0514 72.6524 70.1919 72.537 70.3564 72.4689C70.5208 72.4008 70.7018 72.383 70.8764 72.4177C71.0509 72.4524 71.2113 72.5381 71.3372 72.664C71.463 72.7899 71.5488 72.9502 71.5835 73.1248C71.6182 73.2994 71.6004 73.4804 71.5323 73.6448C71.4642 73.8093 71.3488 73.9498 71.2008 74.0487C71.0528 74.1476 70.8788 74.2004 70.7008 74.2004C70.4621 74.2004 70.2332 74.1056 70.0644 73.9368C69.8956 73.768 69.8008 73.5391 69.8008 73.3004Z" fill="#262E4D"/>
<path id="Vector_79" d="M74.4008 71.2002C74.7008 71.2002 74.9008 71.4002 74.9008 71.8002C74.9008 72.2002 74.7008 72.3002 74.3008 72.3002C73.9008 72.3002 73.8008 72.1002 73.8008 71.7002C73.8008 71.3002 74.0008 71.2002 74.4008 71.2002Z" fill="white"/>
<path id="Vector_80" d="M72.7 75.9004C72.7 76.1004 72.6 76.2004 72.3 76.2004C72 76.2004 72 76.1004 72 75.8004C72 75.5004 72.1 75.4004 72.4 75.5004C72.7 75.6004 72.7 75.6004 72.7 75.9004Z" fill="#FECC39"/>
<path id="Vector_81" d="M71.1008 73.3004C71.1008 73.3795 71.0773 73.4568 71.0334 73.5226C70.9894 73.5884 70.9269 73.6397 70.8539 73.6699C70.7808 73.7002 70.7003 73.7081 70.6227 73.6927C70.5452 73.6773 70.4739 73.6392 70.4179 73.5832C70.362 73.5273 70.3239 73.456 70.3085 73.3784C70.293 73.3008 70.301 73.2204 70.3312 73.1473C70.3615 73.0742 70.4128 73.0118 70.4786 72.9678C70.5443 72.9239 70.6217 72.9004 70.7008 72.9004C70.8069 72.9004 70.9086 72.9425 70.9836 73.0175C71.0586 73.0926 71.1008 73.1943 71.1008 73.3004Z" fill="#FECC39"/>
<path id="Vector_82" d="M50 168.7C50 168.833 49.9473 168.96 49.8536 169.054C49.7598 169.148 49.6326 169.2 49.5 169.2H47.5C47.3674 169.2 47.2402 169.148 47.1464 169.054C47.0527 168.96 47 168.833 47 168.7C47 168.568 47.0527 168.44 47.1464 168.347C47.2402 168.253 47.3674 168.2 47.5 168.2H49.5C49.6326 168.2 49.7598 168.253 49.8536 168.347C49.9473 168.44 50 168.568 50 168.7Z" fill="white"/>
<path id="Vector_83" d="M48.5 170.2C48.3674 170.2 48.2402 170.148 48.1464 170.054C48.0527 169.96 48 169.833 48 169.7V167.7C48 167.568 48.0527 167.44 48.1464 167.347C48.2402 167.253 48.3674 167.2 48.5 167.2C48.6326 167.2 48.7598 167.253 48.8536 167.347C48.9473 167.44 49 167.568 49 167.7V169.7C49 169.833 48.9473 169.96 48.8536 170.054C48.7598 170.148 48.6326 170.2 48.5 170.2Z" fill="white"/>
<path id="Vector_84" d="M49.7898 153.398L47.0215 157.441L48.2344 158.272L51.0027 154.229L49.7898 153.398Z" fill="#0A0B16"/>
<path id="Vector_85" d="M190.311 87.2018L188.975 87.8828L191.204 92.2577L192.54 91.5767L190.311 87.2018Z" fill="#3F6EB5"/>
<path id="Vector_86" d="M93.9211 164.836L92.5918 165.531L94.8666 169.883L96.1959 169.188L93.9211 164.836Z" fill="#E85C7E"/>
<path id="Vector_87" d="M39.6004 151.8L38.4004 153L36.9004 148.3L38.1004 147.1L39.6004 151.8Z" fill="#3F6EB5"/>
<path id="Vector_88" d="M143.735 56.6537L142.309 57.1172L143.826 61.7869L145.252 61.3233L143.735 56.6537Z" fill="#F9EA31"/>
<path id="Vector_89" d="M36.2727 92.0254L34.5781 93.2656L35.842 94.9925L37.5366 93.7522L36.2727 92.0254Z" fill="#DB0939"/>
<path id="Vector_90" d="M129.333 46.0195L127.639 47.2598L128.903 48.9867L130.597 47.7464L129.333 46.0195Z" fill="#DB0939"/>
<path id="Vector_91" d="M53.7786 129.874L52.084 131.114L53.3479 132.841L55.0425 131.601L53.7786 129.874Z" fill="#3F6EB5"/>
<path id="Vector_92" d="M72.4583 116.215L70.7637 117.455L72.0276 119.182L73.7222 117.942L72.4583 116.215Z" fill="#F9EA31"/>
<path id="Vector_93" d="M66.8372 97.249L65.1426 98.4893L66.4065 100.216L68.1011 98.9759L66.8372 97.249Z" fill="#F4951B"/>
<path id="Vector_94" d="M23.2513 120.925L21.5566 122.165L22.8205 123.892L24.5152 122.652L23.2513 120.925Z" fill="#DE0738"/>
<path id="Vector_95" d="M182.175 135.903L180.48 137.144L181.744 138.87L183.439 137.63L182.175 135.903Z" fill="#DE0738"/>
<path id="Vector_96" d="M50.2786 142.247L48.584 143.487L49.8479 145.214L51.5425 143.974L50.2786 142.247Z" fill="#F9EA31"/>
<path id="Vector_97" d="M48.2259 180.554L46.5312 181.794L47.7951 183.521L49.4898 182.281L48.2259 180.554Z" fill="#DE0738"/>
<path id="Vector_98" d="M94.5084 48.9233L92.8672 50.2334L94.2023 51.9059L95.8435 50.5957L94.5084 48.9233Z" fill="#F4951B"/>
<path id="Vector_99" d="M177.904 95.622L176.209 96.8623L177.473 98.5892L179.168 97.3489L177.904 95.622Z" fill="#F4951B"/>
<path id="Vector_100" d="M146.366 86.6391L138.467 86.4736C138.081 86.4655 137.761 86.7723 137.753 87.1588L137.621 93.4375C137.613 93.824 137.92 94.1439 138.307 94.152L146.205 94.3174C146.591 94.3255 146.911 94.0187 146.919 93.6322L147.051 87.3536C147.059 86.9671 146.752 86.6472 146.366 86.6391Z" fill="#F8AF1B"/>
<path id="Vector_101" d="M138.1 94.5996C137.978 94.5779 137.862 94.5312 137.759 94.4623C137.655 94.3935 137.567 94.304 137.5 94.1996C137.3 93.9996 137.1 93.7996 137.2 93.4996V87.1996C137.2 86.9079 137.316 86.6281 137.523 86.4218C137.729 86.2155 138.009 86.0996 138.3 86.0996L146.2 86.2996C146.492 86.2996 146.772 86.4155 146.978 86.6218C147.185 86.8281 147.3 87.1079 147.3 87.3996V93.6996C147.2 94.2996 146.7 94.7996 146.2 94.6996H138.1V94.5996ZM146.3 87.0996L138.4 86.8996C138.321 86.8996 138.245 86.9312 138.188 86.9875C138.132 87.0437 138.1 87.12 138.1 87.1996L137.9 93.4996C137.9 93.5996 138 93.5996 138 93.6996H146.2C146.3 93.7996 146.5 93.5996 146.5 93.4996V87.3996C146.504 87.3347 146.487 87.2703 146.451 87.2162C146.414 87.1621 146.362 87.1212 146.3 87.0996Z" fill="#51678E"/>
<path id="Vector_102" d="M141.7 92L141.4 91.8L140.1 90.5C140.056 90.424 140.033 90.3378 140.033 90.25C140.033 90.1622 140.056 90.076 140.1 90C140.138 89.9574 140.184 89.9233 140.236 89.9C140.287 89.8767 140.343 89.8646 140.4 89.8646C140.457 89.8646 140.513 89.8767 140.565 89.9C140.616 89.9233 140.663 89.9574 140.7 90L141.8 91.1L144.6 88.4C144.7 88.2 145 88.2 145.2 88.4C145.244 88.476 145.267 88.5622 145.267 88.65C145.267 88.7378 145.244 88.824 145.2 88.9L142.3 91.8L141.8 92H141.7Z" fill="white"/>
</g>
</g>
</g>
</g>
<defs>
<clipPath id="clip0_992_34289">
<rect width="220.5" height="167" fill="white" transform="translate(3 30)"/>
</clipPath>
</defs>
</svg>
